<svg width="40" height="40" viewBox="0 0 40 40" fill="none" xmlns="http://www.w3.org/2000/svg">
<g clip-path="url(#clip0_473_22075)">
<path d="M38.8281 22.5938H36.4892C37.1453 21.8279 37.4895 20.8992 37.4895 19.8431C37.2841 15.5762 31.8589 15.1609 30.0416 18.7878C29.3995 17.6323 28.5171 16.8602 27.4479 16.5184V11.2135C27.4479 10.5663 26.9232 10.0416 26.276 10.0416H22.239C24.8648 8.15703 24.9375 5.74227 24.9375 4.9375C24.9375 2.215 22.7226 0 20 0C16.478 0 14.6436 2.565 13.724 4.89578C12.8044 2.565 10.9698 0 7.44789 0C4.72531 0 2.51039 2.215 2.51039 4.9375C2.51039 5.74227 2.58313 8.15703 5.20891 10.0416H1.17188C0.524687 10.0416 0 10.5663 0 11.2135V18.7448C0 19.392 0.524687 19.9166 1.17188 19.9166H2.51039V38.8281C2.51039 39.4753 3.03508 40 3.68227 40H37.5729C38.2201 40 38.7448 39.4753 38.7448 38.8281V29.9584H38.8281C39.4753 29.9584 40 29.4337 40 28.7865V23.7656C40 23.1184 39.4753 22.5938 38.8281 22.5938ZM25.1041 12.3854V16.4661C24.4494 16.6623 23.8641 17.046 23.4214 17.5729H17.4062V12.3854H25.1041ZM15.6404 6.49953C16.5779 3.53656 18.1034 2.34375 20 2.34375C21.4302 2.34375 22.5938 3.50734 22.5938 4.9375C22.5938 6.83398 21.4012 8.35953 18.4379 9.29703C17.1677 9.69891 15.8772 9.88391 14.9684 9.96914C15.0535 9.06008 15.2385 7.76969 15.6404 6.49953ZM4.85414 4.9375C4.85414 3.50727 6.01773 2.34375 7.44789 2.34375C9.34453 2.34375 10.87 3.53656 11.8075 6.49953C12.2094 7.76969 12.3944 9.06 12.4795 9.96914C11.5707 9.88398 10.2802 9.69898 9.01 9.29703C6.04672 8.35953 4.85414 6.83398 4.85414 4.9375ZM10.0416 37.6562H4.85414V19.9166H10.0416V37.6562ZM10.0416 17.5729H2.34375V12.3854H10.0416V17.5729ZM15.0625 37.6562H12.3854V19.9166H15.0625V37.6562ZM15.0625 17.5729H12.3854V12.3854H15.0625V17.5729ZM21.3386 37.6562H17.4062V19.9166H22.5938V22.5938H21.2552C20.608 22.5938 20.0833 23.1184 20.0833 23.7656V28.7865C20.0833 29.4337 20.608 29.9584 21.2552 29.9584H21.3385V37.6562H21.3386ZM26.3594 37.6562H23.6823V29.9584H26.3594V37.6562ZM26.3594 27.6146H22.427V24.9375H26.3594V27.6146ZM24.9375 19.8431C24.9375 19.1916 25.4676 18.6615 26.1191 18.6615C26.5088 18.6615 27.6946 18.6615 28.4199 20.9364C28.5913 21.4741 28.6975 22.0201 28.7632 22.4872C26.5388 22.1987 24.8394 21.2323 24.9375 19.8431ZM31.3802 37.6562H28.7031V29.9584H31.3802V37.6562ZM31.3802 27.6146H28.7031V24.9375H31.3802V27.6146ZM31.3202 22.4871C31.3859 22.02 31.492 21.4739 31.6634 20.9363C32.3887 18.6614 33.5745 18.6614 33.9641 18.6614C34.6157 18.6614 35.1458 19.1915 35.1458 19.843C35.1458 20.2327 35.1458 21.4186 32.8709 22.1439C32.3332 22.3153 31.7873 22.4215 31.3202 22.4871ZM36.4011 37.6562H33.724V29.9584H36.4011V37.6562ZM37.6562 27.6146H33.724V24.9375H37.6562V27.6146Z" fill="#F04D44"/>
</g>
<defs>
<clipPath id="clip0_473_22075">
<rect width="40" height="40" fill="white"/>
</clipPath>
</defs>
</svg>
